<?xml version="1.0" standalone="no"?>
<!DOCTYPE svg PUBLIC "-//W3C//DTD SVG 1.1//EN" "http://www.w3.org/Graphics/SVG/1.1/DTD/svg11.dtd" >
<svg xmlns="http://www.w3.org/2000/svg" xmlns:xlink="http://www.w3.org/1999/xlink" version="1.1">
<metadata></metadata>
<defs>
<font id="public_sansbold" horiz-adv-x="1472" >
<font-face units-per-em="2048" ascent="1597" descent="-451" />
<missing-glyph horiz-adv-x="458" />
<glyph unicode="&#xfb01;" horiz-adv-x="1368" d="M43 852v207h195v151q0 129 75.5 200t212.5 71h244l2 -199h-139q-56 0 -78.5 -27.5t-22.5 -93.5v-102h230v-207h-223v-852h-301v852h-195zM936 1229v270h305v-270h-305zM938 0v1059h299v-1059h-299z" />
<glyph unicode="&#xfb02;" horiz-adv-x="1452" d="M43 852v207h195v151q0 129 75.5 200t212.5 71h244l2 -199h-139q-56 0 -78.5 -27.5t-22.5 -93.5v-102h230v-207h-223v-852h-301v852h-195zM932 297v1225h295v-1188q0 -62 26.5 -97t92.5 -42l49 -2v-187q-70 -24 -123 -24q-90 0 -155 19t-100 47t-55 73.5t-25 83.5t-5 92z " />
<glyph horiz-adv-x="53" />
<glyph horiz-adv-x="53" />
<glyph horiz-adv-x="682" />
<glyph unicode="&#xd;" horiz-adv-x="487" />
<glyph unicode=" "  horiz-adv-x="458" />
<glyph unicode="&#x09;" horiz-adv-x="458" />
<glyph unicode="&#xa0;" horiz-adv-x="458" />
<glyph unicode="!" horiz-adv-x="577" d="M104 1481h349l-78 -1024h-189zM115 0v319h327v-319h-327z" />
<glyph unicode="&#x22;" horiz-adv-x="983" d="M115 1481h305l-78 -574h-149zM561 1481h307l-80 -574h-149z" />
<glyph unicode="#" horiz-adv-x="1261" d="M57 461v155h256l39 265h-229v155h252l67 449l156 -17l-63 -432h274l68 449l155 -17l-63 -432h221v-155h-244l-39 -265h217v-155h-241l-68 -465l-158 20l66 445h-274l-68 -465l-158 20l66 445h-232zM473 616h275l38 265h-274z" />
<glyph unicode="$" horiz-adv-x="1394" d="M100 416l312 6q25 -99 106 -152t205 -53q110 0 181 52t71 132q0 79 -50 120t-163 67l-242 51q-175 37 -274.5 139.5t-100.5 268.5q-1 177 123.5 294.5t327.5 147.5v203h258v-203q191 -33 303.5 -152.5t110.5 -281.5l-303 -4q-14 104 -68.5 157.5t-167.5 53.5 q-120 0 -192 -50.5t-72 -130.5q0 -67 44.5 -104.5t164.5 -67.5l237 -57q381 -93 381 -451q0 -166 -119.5 -276.5t-324.5 -136.5v-183h-258v183q-215 24 -342 131t-148 297z" />
<glyph unicode="%" horiz-adv-x="1923" d="M94 1079q0 179 108.5 301.5t268.5 122.5q157 0 264 -122.5t107 -301.5q0 -177 -106 -296t-265 -119q-161 0 -269 119t-108 296zM315 1079q0 -126 38 -195t116 -69q152 0 152 264q0 130 -38.5 201.5t-113.5 71.5q-76 0 -115 -72t-39 -201zM414 -6l999 1503h172l-995 -1505 zM1067 397q0 177 108.5 300.5t266.5 123.5t265.5 -123t107.5 -301t-106 -297.5t-267 -119.5t-268 119.5t-107 297.5zM1288 395q0 -123 38.5 -192.5t113.5 -69.5q76 0 114.5 69.5t38.5 192.5q0 129 -39 202t-114 73t-113.5 -73.5t-38.5 -201.5z" />
<glyph unicode="&#x26;" horiz-adv-x="1605" d="M96 371q0 146 89 249.5t284 206.5q-41 46 -59.5 68t-47 60t-40 64.5t-21.5 63t-10 74.5q0 149 122.5 247.5t315.5 98.5t323 -89.5t130 -231.5q0 -205 -328 -396l231 -272q83 175 101 328h305q-18 -64 -54 -140t-59.5 -117.5t-82 -134t-68.5 -108.5l293 -342h-344 l-125 145q-212 -155 -478 -155q-236 0 -356.5 103.5t-120.5 277.5zM430 389q10 -79 74 -125.5t143 -46.5q62 0 134 28t124 77l-291 335q-90 -50 -142 -118.5t-42 -149.5zM588 1178q0 -89 100 -197l41 -45q107 66 149 120t42 113q0 75 -52 115t-125 37q-71 -1 -113 -42 t-42 -101z" />
<glyph unicode="'" horiz-adv-x="534" d="M115 1481h305l-78 -574h-149z" />
<glyph unicode="(" horiz-adv-x="681" d="M121 606q0 245 78 478t215 434h211q-236 -449 -236 -914q0 -226 56.5 -441t170.5 -456h-208q-143 239 -215 446.5t-72 452.5z" />
<glyph unicode=")" horiz-adv-x="688" d="M25 1518h211q136 -200 213 -433t77 -479t-71 -454t-213 -445h-209q114 241 170.5 456t56.5 441q0 467 -235 914z" />
<glyph unicode="*" horiz-adv-x="968" d="M57 1112l64 174l285 -123l-23 318h195l-27 -320l289 129l57 -176l-293 -84l207 -248l-162 -112l-170 280l-172 -284l-160 110l211 254z" />
<glyph unicode="+" horiz-adv-x="1204" d="M119 635v219h375v375h219v-375h372v-217h-372v-375h-217v373h-377z" />
<glyph unicode="," horiz-adv-x="567" d="M96 -287l119 279l-104 10v289h303v-254l-207 -324h-111z" />
<glyph unicode="-" horiz-adv-x="811" d="M119 418v217l559 2v-219h-559z" />
<glyph unicode="." horiz-adv-x="552" d="M102 0v326h328v-326h-328z" />
<glyph unicode="/" horiz-adv-x="780" d="M25 -37l516 1518h209l-519 -1518h-206z" />
<glyph unicode="0" horiz-adv-x="1294" d="M78 735q0 367 151.5 567.5t419.5 200.5q266 0 417 -200t151 -566q0 -364 -149.5 -559.5t-420.5 -195.5t-420 194.5t-149 558.5zM389 735q0 -272 62 -392t196 -120q135 0 195.5 119t60.5 393q0 281 -62 406t-194 125t-195 -126t-63 -405z" />
<glyph unicode="1" horiz-adv-x="864" d="M82 1110v168q184 0 271 51.5t98 151.5h198v-1481h-303v1110h-264z" />
<glyph unicode="2" horiz-adv-x="1310" d="M94 995q2 108 39 199t107.5 160t181.5 108t252 39q247 0 392.5 -122.5t145.5 -323.5q0 -84 -26 -155t-69.5 -121t-100.5 -92.5t-119.5 -74.5t-125.5 -61t-120 -58.5t-100.5 -61t-69.5 -73.5t-26 -92v-14h755v-252h-1089v223q0 107 43 194t111 144.5t151 106t166 89 t151 81.5t111 95.5t43 119.5q0 89 -62.5 144.5t-168.5 55.5q-116 0 -192 -66t-93 -192h-287z" />
<glyph unicode="3" horiz-adv-x="1318" d="M68 459h286q21 -122 95.5 -181t185.5 -59q136 0 215.5 58t79.5 153q0 94 -79 150t-206 59l-141 6v238l127 6q120 4 193 60.5t73 142.5q0 79 -74 128.5t-190 49.5q-115 0 -189.5 -58.5t-81.5 -185.5h-286q0 154 76 263t201 160.5t286 51.5q170 0 297 -42t202.5 -133 t75.5 -222q0 -232 -270 -326q134 -37 218.5 -126.5t84.5 -231.5q0 -141 -84 -242.5t-221 -150t-309 -47.5q-266 1 -414 127.5t-151 351.5z" />
<glyph unicode="4" horiz-adv-x="1304" d="M59 328v245l676 908h293v-903h229v-250h-229v-328h-287v328h-682zM336 578h405v542z" />
<glyph unicode="5" horiz-adv-x="1366" d="M74 326l233 137q67 -116 152.5 -180t208.5 -64q133 0 214 70t81 184q0 108 -80 180t-205 72q-72 0 -130.5 -20.5t-129.5 -77.5q-13 -6 -19.5 -5.5t-21.5 7.5l-217 100l69 752h951l-11 -246h-704l-29 -356q157 88 320 88q228 0 374 -128.5t146 -355.5 q0 -232 -156.5 -367.5t-421.5 -135.5q-216 0 -385 95.5t-239 250.5z" />
<glyph unicode="6" horiz-adv-x="1331" d="M78 717q0 367 164.5 578.5t455.5 211.5q141 0 258 -50t191.5 -148.5t81.5 -229.5h-273q-57 191 -249 191q-158 0 -238.5 -132.5t-58.5 -349.5q51 72 141.5 113t193.5 41q226 0 365 -124t139 -329q0 -219 -157 -359t-406 -140q-282 0 -445 196.5t-163 530.5zM420 530 q0 -147 70.5 -231t187.5 -84q106 0 181 73.5t75 186.5q0 119 -71 181.5t-185 62.5q-95 0 -176.5 -60t-81.5 -129z" />
<glyph unicode="7" horiz-adv-x="1224" d="M68 1235v246h1103v-246q-181 -226 -343 -607.5t-171 -627.5h-321q8 98 42 232t93.5 298.5t161 352t227.5 352.5h-792z" />
<glyph unicode="8" horiz-adv-x="1327" d="M68 418q0 123 86.5 228t193.5 128q-99 46 -158 124.5t-59 188.5q0 195 149 304.5t384 109.5t383.5 -109.5t148.5 -304.5q0 -110 -59 -188.5t-158 -124.5q107 -23 194 -128t87 -228q0 -197 -163 -313.5t-433 -116.5t-433 116.5t-163 313.5zM385 426q0 -99 75 -157t204 -58 t203.5 58t74.5 157q0 98 -75.5 159.5t-202.5 61.5t-203 -61.5t-76 -159.5zM430 1094q0 -96 65 -150.5t169 -54.5t168.5 54.5t64.5 150.5q0 95 -65 152t-168 57t-168.5 -57.5t-65.5 -151.5z" />
<glyph unicode="9" horiz-adv-x="1337" d="M88 1006q0 220 154 358.5t403 138.5q283 0 445.5 -195.5t162.5 -531.5q0 -390 -163 -589t-461 -199q-215 0 -371 118t-168 308h285q19 -88 82.5 -139.5t158.5 -51.5q170 0 262 120t74 374q-45 -85 -135 -132.5t-213 -47.5q-229 0 -372.5 127.5t-143.5 341.5zM410 1018 q0 -114 67 -179t178 -65q93 0 174.5 60.5t81.5 128.5q1 149 -69 233t-187 84q-107 0 -176 -73t-69 -189z" />
<glyph unicode=":" horiz-adv-x="552" d="M102 6v320h328v-320h-328zM102 713v321h328v-321h-328z" />
<glyph unicode=";" horiz-adv-x="569" d="M102 -315l134 315h-117v322h327v-285l-223 -352h-121zM117 702v326h327v-326h-327z" />
<glyph unicode="&#x3c;" horiz-adv-x="1181" d="M119 578v249l944 367v-256l-614 -238l614 -231v-256z" />
<glyph unicode="=" horiz-adv-x="1204" d="M119 362v218l966 2v-220h-966zM119 831v218h966v-218h-966z" />
<glyph unicode="&#x3e;" horiz-adv-x="1183" d="M119 213v256l616 231l-616 238v256l946 -367v-249z" />
<glyph unicode="?" horiz-adv-x="1116" d="M23 1165q66 162 200.5 249t321.5 87q216 0 350.5 -100t134.5 -248q0 -68 -22 -126.5t-56.5 -102t-77 -84t-84.5 -80t-76.5 -81.5t-56.5 -97.5t-22 -118.5h-240q0 105 35 193t85 147.5t100 112t85 108.5t35 113q0 72 -54.5 115.5t-139.5 43.5q-84 0 -158 -52.5 t-107 -139.5zM352 0v319h326v-319h-326z" />
<glyph unicode="@" horiz-adv-x="1714" d="M96 522q0 161 58 306t162.5 254t260 173t338.5 64q111 0 213.5 -23t195 -73.5t161 -123.5t109 -181.5t40.5 -239.5q0 -228 -110 -372t-283 -144q-146 0 -192 94q-8 12 -12 11.5t-13 -11.5q-104 -123 -266 -123q-130 0 -216.5 98t-86.5 256q0 123 49 227.5t142.5 169 t211.5 64.5q77 0 127 -26.5t90 -75.5q4 -5 10 -3.5t7 11.5l10 43h172l-74 -440q-21 -125 62 -125q78 0 135 88t57 246q0 107 -30 191.5t-81 139.5t-121 91t-146 51.5t-161 15.5q-159 0 -282.5 -50.5t-199 -138t-114 -200t-38.5 -242.5q0 -277 167 -436.5t461 -159.5 q87 0 158 18.5t111 40.5t102 64l90 -121q-82 -68 -211 -111.5t-282 -43.5q-145 0 -270 38t-218 106.5t-159.5 161.5t-100 205.5t-33.5 235.5zM668 508q0 -86 36.5 -140.5t104.5 -54.5q85 0 147 72.5t68 169.5q7 94 -36 153.5t-114 59.5q-87 0 -146.5 -75.5t-59.5 -184.5z " />
<glyph unicode="A" d="M49 0l531 1481h315l528 -1481h-297l-120 344h-533l-123 -344h-301zM539 604h395l-197 588z" />
<glyph unicode="B" horiz-adv-x="1409" d="M166 0v1481h536q572 0 572 -389q0 -114 -58 -194.5t-198 -139.5q72 -18 125.5 -48.5t85 -64.5t50.5 -77.5t25.5 -82.5t6.5 -84q0 -205 -140.5 -303t-443.5 -98h-561zM465 231h268q132 0 202.5 53t70.5 146q0 96 -71 148.5t-185 52.5h-285v-400zM465 868h285 q64 0 116 18.5t86.5 62t34.5 106.5q0 93 -71 143.5t-187 50.5h-264v-381z" />
<glyph unicode="C" horiz-adv-x="1480" d="M109 752q0 346 178.5 547.5t488.5 201.5q249 0 415.5 -141t190.5 -359l-313 -4q-21 120 -98 189t-203 69q-332 0 -332 -507q0 -264 87 -393.5t249 -129.5q115 0 193 76t102 197l313 -6q-11 -87 -37 -161t-74 -139.5t-114.5 -112t-162 -73t-212.5 -26.5q-204 0 -356.5 97 t-233.5 271.5t-81 403.5z" />
<glyph unicode="D" horiz-adv-x="1474" d="M166 0v1481q315 0 442 -2q393 -9 580.5 -198.5t187.5 -532.5q0 -355 -195 -551.5t-583 -196.5h-432zM467 242h137q99 0 179.5 27.5t144.5 86t99.5 158.5t35.5 236q0 489 -455 489h-141v-997z" />
<glyph unicode="E" horiz-adv-x="1316" d="M166 0v1481h1018l-2 -252h-715v-359h620v-247h-622v-367l729 -2v-254h-1028z" />
<glyph unicode="F" horiz-adv-x="1245" d="M166 0v1481h1008l-3 -250h-704v-373h612v-244h-612v-614h-301z" />
<glyph unicode="G" horiz-adv-x="1562" d="M109 735q0 351 188 558.5t496 207.5q127 0 239 -41.5t189.5 -110.5t123.5 -159t50 -186l-316 -7q-21 110 -99.5 181t-195.5 71q-159 0 -255.5 -125t-96.5 -376q0 -113 20 -201t53.5 -144.5t81 -93.5t99 -52t111.5 -15q122 0 200 73.5t90 163.5l13 90h-307v207l620 -2 v-774h-205v193q-33 -43 -67.5 -76t-86.5 -67t-123 -52t-157 -18q-304 0 -484.5 206t-180.5 549z" />
<glyph unicode="H" horiz-adv-x="1490" d="M166 0v1481h299v-594h563v594h301v-1481h-301v637h-563v-637h-299z" />
<glyph unicode="I" horiz-adv-x="628" d="M166 0v1481h299v-1481h-299z" />
<glyph unicode="J" horiz-adv-x="829" d="M51 12l6 275q105 -27 154 -27q100 0 137 52.5t37 179.5v989h301v-1069q0 -113 -16.5 -189t-58.5 -133t-117 -83.5t-189 -26.5q-129 0 -254 32z" />
<glyph unicode="K" horiz-adv-x="1468" d="M166 0v1481h311v-678l539 678h344l-449 -572l504 -909h-328l-393 690l-217 -266v-424h-311z" />
<glyph unicode="L" horiz-adv-x="1169" d="M166 0v1481h301v-1229h643v-252h-944z" />
<glyph unicode="M" horiz-adv-x="1875" d="M166 0v1481h434l340 -1055l342 1055h432v-1481h-301v1133l-356 -1133h-236l-354 1126v-1126h-301z" />
<glyph unicode="N" horiz-adv-x="1599" d="M166 0v1481h297l676 -981v981h299v-1481h-271l-702 1018v-1018h-299z" />
<glyph unicode="O" horiz-adv-x="1576" d="M109 735q0 354 185 560t497 206t495.5 -205.5t183.5 -558.5q0 -351 -182.5 -554t-496.5 -203q-316 0 -499 202t-183 553zM434 733q0 -261 94.5 -384.5t264.5 -123.5q352 0 352 508q0 267 -93 394.5t-261 127.5t-262.5 -127.5t-94.5 -394.5z" />
<glyph unicode="P" horiz-adv-x="1341" d="M166 0v1481h545q164 0 291 -55.5t201.5 -166.5t74.5 -264q0 -219 -143 -343t-385 -124h-283v-528h-301zM465 760h276q112 0 184 72t72 180t-74.5 173.5t-185.5 65.5h-272v-491z" />
<glyph unicode="Q" horiz-adv-x="1558" d="M78 737q0 354 185 559t497 205t496 -205t184 -559q0 -410 -248 -612q24 -62 91 -98.5t151 -38.5v-240q-81 0 -140.5 8.5t-124.5 33.5t-124 75.5t-115 128.5q-101 -14 -170 -14q-315 0 -498.5 201.5t-183.5 555.5zM406 733q0 -264 90.5 -386t263.5 -122t263.5 122 t90.5 388q0 520 -354 520t-354 -522z" />
<glyph unicode="R" horiz-adv-x="1429" d="M166 0v1481h625q256 0 382.5 -119.5t126.5 -323.5q0 -84 -20.5 -152.5t-58 -118t-81.5 -84t-100 -62.5l275 -621h-309l-242 571h-299v-571h-299zM465 801h272q119 0 189.5 63.5t70.5 165.5q0 101 -66.5 162t-170.5 61h-295v-452z" />
<glyph unicode="S" horiz-adv-x="1452" d="M100 416l312 6q23 -98 109.5 -152.5t211.5 -54.5q132 0 217.5 47.5t85.5 138.5q0 78 -67 122.5t-187 68.5l-262 51q-176 33 -275 135q-100 103 -100 272q1 134 77 237q78 104 209.5 158t295.5 54q129 0 239.5 -37t185.5 -98.5t121.5 -141.5t55.5 -167l-303 -4 q-32 211 -295 211q-120 0 -193 -50.5t-73 -130.5q0 -68 45.5 -107t163.5 -65l258 -53q414 -79 414 -455q0 -181 -171 -301t-442 -120q-114 0 -220 27t-195 79t-147.5 137.5t-70.5 192.5z" />
<glyph unicode="T" horiz-adv-x="1245" d="M31 1214v267h1183v-267h-436v-1214h-301v1214h-446z" />
<glyph unicode="U" horiz-adv-x="1495" d="M166 573v908h305v-930q0 -160 77 -239t210 -79q134 0 212.5 79t78.5 239v930h303v-916q0 -283 -141 -434t-453 -151q-159 0 -274 40.5t-184.5 119t-101.5 185.5t-32 248z" />
<glyph unicode="V" horiz-adv-x="1404" d="M25 1481h284l391 -1133l396 1133h284l-510 -1481h-340z" />
<glyph unicode="W" horiz-adv-x="1986" d="M41 1481h293l276 -977l275 977h215l280 -977l275 977h291l-437 -1481h-239l-279 969l-278 -969h-236z" />
<glyph unicode="X" horiz-adv-x="1437" d="M41 0l491 752l-477 729h373l293 -477l295 477h319l-456 -690l518 -791h-373l-332 532l-327 -532h-324z" />
<glyph unicode="Y" horiz-adv-x="1353" d="M14 1481h324l340 -600l338 600h325l-514 -858v-623h-299v623z" />
<glyph unicode="Z" horiz-adv-x="1370" d="M98 0v145l752 1086h-700v250h1128v-140l-764 -1087h756v-254h-1172z" />
<glyph unicode="[" horiz-adv-x="690" d="M152 -330v1811h469v-170h-224v-1471h224v-170h-469z" />
<glyph unicode="\" horiz-adv-x="780" d="M16 1481h209l518 -1518h-208z" />
<glyph unicode="]" horiz-adv-x="704" d="M31 -160h225l-2 1471h-223v170h469v-1811h-469v170z" />
<glyph unicode="^" horiz-adv-x="991" d="M70 252l319 754q19 45 57.5 63t77 1.5t58.5 -62.5l317 -758h-203l-211 524l-213 -522h-202z" />
<glyph unicode="_" horiz-adv-x="1132" d="M119 -68l887 2v-217h-887v215z" />
<glyph unicode="`" horiz-adv-x="651" d="M25 1309l67 194l518 -211l-43 -127z" />
<glyph unicode="a" horiz-adv-x="1146" d="M70 303q0 176 132.5 266t409.5 93l131 2v63q0 75 -45.5 113.5t-130.5 38.5q-70 -2 -127.5 -36t-79.5 -100h-247q7 160 136 248t333 88q450 0 450 -334v-745h-250l-26 180q-52 -110 -131.5 -155t-196.5 -45q-157 0 -257.5 86t-100.5 237zM354 334q0 -73 49.5 -115.5 t124.5 -42.5q82 0 148.5 54.5t66.5 123.5v156l-106 -2q-125 -2 -204 -43t-79 -131z" />
<glyph unicode="b" horiz-adv-x="1234" d="M131 0v1522h299v-635q47 85 127 138.5t188 53.5q201 0 310.5 -147.5t109.5 -396.5q0 -258 -116.5 -406.5t-331.5 -148.5q-124 0 -213 55.5t-127 134.5l-31 -170h-215zM430 485q1 -136 58.5 -213t154.5 -77q217 0 217 344q0 323 -215 323q-58 0 -101 -22.5t-66.5 -62.5 t-34.5 -86t-13 -103v-103z" />
<glyph unicode="c" horiz-adv-x="1097" d="M70 524q0 246 143 400.5t369 154.5q191 0 311.5 -114.5t132.5 -290.5l-250 -2q-17 78 -64 129t-126 51q-110 0 -174 -86t-64 -238q0 -155 67 -245t177 -90q78 0 126 54t62 124h242q-11 -171 -132 -281t-308 -110q-225 0 -368.5 151t-143.5 393z" />
<glyph unicode="d" horiz-adv-x="1226" d="M70 535q0 249 109 396.5t310 147.5q108 0 192 -45t124 -114v602h301v-1522h-217l-35 217q-32 -102 -113 -169.5t-223 -67.5q-215 0 -331.5 148.5t-116.5 406.5zM362 539q0 -178 60.5 -261t163.5 -83q98 0 158.5 70t60.5 186v165q-2 104 -57.5 175t-163.5 71 q-222 0 -222 -323z" />
<glyph unicode="e" horiz-adv-x="1148" d="M70 518q0 160 59.5 286t177.5 200.5t277 74.5q236 0 363.5 -146t127.5 -390v-82h-708v-8q0 -117 58 -185q60 -70 167 -71q162 0 213 139h268q-30 -165 -165.5 -260.5t-309.5 -95.5q-237 0 -382.5 146t-145.5 392zM365 639h432q0 101 -56 166t-159 65q-98 0 -157.5 -69 t-59.5 -162z" />
<glyph unicode="f" horiz-adv-x="800" d="M43 852v207h195v151q0 129 75.5 200t212.5 71h244l2 -199h-139q-56 0 -78.5 -27.5t-22.5 -93.5v-102h230v-207h-223v-852h-301v852h-195z" />
<glyph unicode="g" horiz-adv-x="1277" d="M39 -90q0 41 18.5 75t48.5 55.5t56 35.5t54 24t30 11q-2 1 -15.5 7.5t-20 10t-21 12.5t-22.5 16.5t-19.5 20t-17.5 25t-10.5 29t-4.5 34.5q0 60 56 107t161 65q-106 49 -159.5 130t-53.5 175q0 154 141.5 243t360.5 89q99 0 169 -21.5t138 -62.5q244 97 311 125l-2 -231 l-182 -29q22 -64 22 -113q0 -68 -30.5 -130t-88.5 -111.5t-151 -79t-209 -29.5q-50 0 -104 4q-105 -5 -105 -43q0 -23 39.5 -31.5t144.5 -15.5q112 -5 222 -12q193 -13 289 -94t96 -209q0 -156 -146.5 -249t-417.5 -93q-280 0 -428.5 71t-148.5 189zM332 -55q0 -68 81 -97.5 t251 -29.5q125 0 178 29t53 90q0 103 -162 112l-241 17h-10q-63 0 -105 -34q-45 -36 -45 -87zM418 735q0 -80 50.5 -127t139.5 -47q88 0 137.5 47t49.5 127q0 82 -52 132.5t-135 50.5q-87 0 -138.5 -51.5t-51.5 -131.5z" />
<glyph unicode="h" horiz-adv-x="1222" d="M131 0v1522h297v-602q100 145 305 145q154 0 261.5 -93t107.5 -239v-733h-299v690q0 66 -50.5 105t-125.5 39q-80 0 -138.5 -41t-58.5 -111v-682h-299z" />
<glyph unicode="i" horiz-adv-x="567" d="M135 1229v270h305v-270h-305zM137 0v1059h299v-1059h-299z" />
<glyph unicode="j" horiz-adv-x="598" d="M-33 -111l82 9q63 9 88 34t25 78v1049h299v-1051q0 -176 -86.5 -262t-272.5 -86q-49 0 -83 7t-43 15l-9 7v200zM158 1229v270h305v-270h-305z" />
<glyph unicode="k" horiz-adv-x="1198" d="M131 0v1522h299v-901l389 438h322l-385 -422l399 -637h-299l-285 457l-141 -150v-307h-299z" />
<glyph unicode="l" horiz-adv-x="651" d="M131 297v1225h295v-1188q0 -62 26.5 -97t92.5 -42l49 -2v-187q-70 -24 -123 -24q-90 0 -155 19t-100 47t-55 73.5t-25 83.5t-5 92z" />
<glyph unicode="m" horiz-adv-x="1845" d="M131 0v1059h293v-137q118 157 332 157q91 0 174 -38.5t127 -116.5q52 71 139.5 113t181.5 42q62 0 121 -20.5t110.5 -60.5t83 -110.5t31.5 -160.5v-727h-301v694q0 86 -47.5 126t-118.5 40q-182 0 -182 -192v-668h-297v721q0 63 -52 101t-116 38q-70 0 -125 -39t-55 -110 v-711h-299z" />
<glyph unicode="n" horiz-adv-x="1224" d="M131 0v1059h295v-137q55 70 123.5 108.5t183.5 38.5q98 0 182 -43.5t136.5 -127.5t52.5 -191v-707h-299v670q0 76 -50 120t-126 44q-80 0 -139.5 -40t-59.5 -108v-686h-299z" />
<glyph unicode="o" horiz-adv-x="1165" d="M70 522q0 249 142 403t372 154q235 0 372.5 -154.5t137.5 -400.5q0 -242 -138.5 -393t-373.5 -151t-373.5 150t-138.5 392zM362 532q0 -65 12 -121t37 -104t70 -76t105 -28q59 0 102.5 27.5t67.5 76t35.5 104.5t11.5 121q0 66 -11.5 122.5t-36 104t-68.5 74.5t-103 27 q-60 0 -104.5 -27t-69.5 -74.5t-36.5 -104t-11.5 -122.5z" />
<glyph unicode="p" horiz-adv-x="1234" d="M131 -330v1389h299v-133q53 69 131.5 111t177.5 42q88 0 164 -33.5t134.5 -98.5t92 -169.5t33.5 -238.5q0 -140 -37 -249t-101 -175.5t-146 -100.5t-177 -34q-85 0 -152.5 38.5t-119.5 135.5v-484h-299zM430 377q23 -80 82.5 -131t132.5 -51q103 0 171.5 89t68.5 251 q0 155 -68.5 241t-167.5 86q-88 0 -153.5 -67.5t-65.5 -145.5v-272z" />
<glyph unicode="q" horiz-adv-x="1224" d="M70 539q0 134 34 238.5t93 169.5t135 98.5t164 33.5q163 0 309 -127v107h299v-1389h-299v459q-115 -149 -295 -149q-195 0 -317.5 141.5t-122.5 417.5zM375 541q0 -166 64.5 -263.5t166.5 -97.5q96 0 147.5 86t51.5 221v111q0 127 -55.5 203t-147.5 76 q-100 0 -163.5 -85.5t-63.5 -250.5z" />
<glyph unicode="r" horiz-adv-x="825" d="M131 0v1059h289v-250q41 119 135.5 194.5t235.5 75.5v-282q-34 2 -64 2q-297 0 -297 -219v-580h-299z" />
<glyph unicode="s" horiz-adv-x="1083" d="M78 334h260q13 -55 51 -90t79 -46.5t85 -11.5q87 0 138.5 28t51.5 81q0 43 -33.5 68.5t-105.5 39.5l-182 39q-311 66 -311 306q0 149 119 239q121 92 325 92q197 0 315 -88t117 -239h-250q-12 59 -63 90.5t-125 31.5q-75 0 -125.5 -25.5t-50.5 -82.5q0 -40 39.5 -64 t130.5 -43l172 -36q67 -17 119 -46t82 -61.5t49.5 -70.5t26.5 -70t7 -64q0 -157 -126 -244t-320 -87q-85 0 -162.5 21t-143.5 62.5t-111 111t-58 159.5z" />
<glyph unicode="t" horiz-adv-x="837" d="M41 852v207h182l47 319h242v-317h236v-209h-236l2 -561q0 -57 21.5 -74.5t72.5 -17.5h142v-185q-58 -26 -185 -26q-103 0 -173.5 20t-108.5 60t-54 89t-16 117v578h-172z" />
<glyph unicode="u" horiz-adv-x="1220" d="M129 328v733h299v-696q0 -82 52.5 -125t129.5 -43q82 0 135.5 46.5t53.5 127.5v690h301l-4 -1061h-228l-32 211q-14 -66 -48 -113.5t-80 -71.5t-91.5 -35t-94.5 -11q-68 1 -135.5 23t-126 63t-95 109.5t-36.5 152.5z" />
<glyph unicode="v" horiz-adv-x="1069" d="M29 1059h270l231 -674h9l229 674h272l-397 -1059h-215z" />
<glyph unicode="w" horiz-adv-x="1619" d="M33 1059h264l203 -658h8l194 658h213l199 -658h8l195 658h270l-348 -1059h-238l-196 641l-199 -641h-229z" />
<glyph unicode="x" horiz-adv-x="1204" d="M37 0l405 551l-370 508h311l221 -297l219 297h314l-375 -508l405 -551h-313l-252 344l-254 -344h-311z" />
<glyph unicode="y" horiz-adv-x="1157" d="M29 1059h297l254 -690l258 690h290l-428 -1065q-41 -99 -86.5 -165.5t-96.5 -102t-103 -50t-117 -14.5q-64 0 -114 9t-67 19l-18 9v190l105 -4q15 -1 29 -1q22 0 40 2q32 3 52.5 7.5t38.5 17t26 18.5t17 22t9.5 18.5t6.5 16.5l20 59z" />
<glyph unicode="z" horiz-adv-x="1083" d="M70 0v154l548 716h-503v189h878v-152l-551 -714h557v-193h-929z" />
<glyph unicode="{" horiz-adv-x="786" d="M25 508v151q120 0 175.5 46.5t55.5 138.5v395q0 113 94 177.5t219 64.5h150v-170h-90q-80 0 -103.5 -26t-23.5 -79v-407q-3 -98 -66.5 -149t-148.5 -60q-8 -1 -11 -3.5t-0.5 -5t11.5 -3.5q39 -3 73 -15t67.5 -35.5t53.5 -67t21 -102.5v-411q0 -58 27.5 -82.5t99.5 -24.5 h90v-170h-146q-84 0 -154.5 26.5t-116.5 83.5t-46 136v416q0 77 -58 126.5t-173 49.5z" />
<glyph unicode="|" horiz-adv-x="546" d="M166 -330v2022h219v-2022h-219z" />
<glyph unicode="}" horiz-adv-x="786" d="M29 -160h90q72 0 99.5 24.5t27.5 82.5v411q1 59 21 102.5t53.5 67t67.5 35.5t73 15q9 1 11.5 3.5t-0.5 5t-11 3.5q-85 9 -148.5 60t-66.5 149v407q0 53 -23.5 79t-103.5 26h-90v170h149q127 0 220.5 -64.5t93.5 -177.5v-395q0 -92 55.5 -138.5t175.5 -46.5v-151 q-115 0 -173 -49.5t-58 -126.5v-416q0 -79 -46.5 -136t-117 -83.5t-154.5 -26.5h-145v170z" />
<glyph unicode="~" horiz-adv-x="1253" d="M117 719q58 60 99 94.5t100.5 61t123.5 26.5q56 0 111 -19.5t92 -43t85 -43t91 -19.5q129 0 217 146l88 -150q-52 -88 -131.5 -136t-169.5 -48q-56 0 -111.5 20t-93 43.5t-86.5 43.5t-94 20q-70 0 -123 -38t-114 -108z" />
<glyph unicode="&#xa1;" horiz-adv-x="571" d="M104 -330l82 930h187l82 -930h-351zM115 739v320h327v-320h-327z" />
<glyph unicode="&#xa2;" horiz-adv-x="1148" d="M98 752q0 218 114.5 365.5t303.5 180.5v183h199v-185q147 -30 237.5 -137.5t102.5 -257.5l-250 -2q-17 78 -64.5 129t-126.5 51q-110 0 -173.5 -85.5t-63.5 -237.5q0 -156 65.5 -246t175.5 -90q79 0 128 54t63 124h242q-11 -146 -101 -249t-235 -132v-217h-199v215 q-188 31 -303 176.5t-115 360.5z" />
<glyph unicode="&#xa3;" horiz-adv-x="1327" d="M41 0v248h70q81 0 128.5 51.5t47.5 159.5q0 65 -21 235h-209v166h174l-20 184q-15 107 17.5 195.5t99 144.5t155.5 86.5t189 30.5q167 0 293.5 -77.5t185.5 -215.5l-260 -80q-33 73 -72 104.5t-102 31.5q-74 0 -120 -46.5t-46 -127.5q0 -68 33 -230h301v-166h-279 q12 -140 -4 -215q-10 -82 -38.5 -131.5t-80.5 -97.5h277q97 0 147 36t84 128l252 -56q-99 -358 -461 -358h-741z" />
<glyph unicode="&#xa4;" horiz-adv-x="1183" d="M78 369l135 133q-72 112 -72 241q0 131 62 226q8 20 -4 32l-121 121l125 129l137 -137q113 76 240 76q124 0 235 -68q16 -7 25 2l112 115l125 -129l-125 -123q74 -117 74 -242q0 -138 -68 -233q-3 -10 3 -14l118 -117l-125 -129l-125 125q-120 -76 -241 -76 q-126 0 -232 64q-18 12 -32 -5l-121 -120zM338 745q0 -100 71.5 -173.5t174.5 -73.5q104 0 175.5 73.5t71.5 173.5q0 99 -71.5 173.5t-175.5 74.5q-102 0 -174 -74.5t-72 -173.5z" />
<glyph unicode="&#xa5;" horiz-adv-x="1349" d="M-12 1481h389l336 -592l334 592h315l-473 -768h268v-162h-305v-160h305v-162h-305v-229h-340v229h-305v162h305v158h-305v164h248z" />
<glyph unicode="&#xa6;" horiz-adv-x="546" d="M166 -330v836h219v-836h-219zM166 856v836h219v-836h-219z" />
<glyph unicode="&#xa7;" horiz-adv-x="1050" d="M57 80l185 90q105 -145 280 -145q85 0 135 28t50 82q0 42 -35.5 76.5t-126.5 69.5l-156 59q-165 62 -238 137t-73 189q0 93 48 162t132 108q-91 53 -128.5 113.5t-37.5 136.5q0 137 113 226t301 89q150 0 265.5 -65.5t164.5 -159.5l-184 -90q-53 61 -109.5 97t-128.5 36 t-114 -28.5t-42 -76.5q0 -67 117 -112l158 -62q174 -67 249.5 -145t75.5 -197q0 -170 -165 -266q95 -53 137.5 -113.5t42.5 -144.5q0 -150 -118 -242t-327 -92q-169 0 -295 68.5t-176 171.5zM322 709q0 -46 31.5 -75t125.5 -65l103 -43q60 -6 99 34.5t34 98.5q-5 45 -40 80 t-116 66l-92 35q-67 -4 -106 -41.5t-39 -89.5z" />
<glyph unicode="&#xa8;" horiz-adv-x="747" d="M2 1229v270h305v-270h-305zM440 1229v270h305v-270h-305z" />
<glyph unicode="&#xa9;" horiz-adv-x="1701" d="M82 741q0 154 60 294.5t162 242.5t243.5 162.5t296.5 60.5q154 0 294.5 -60.5t242.5 -162.5t162.5 -242.5t60.5 -294.5q0 -156 -60.5 -297.5t-162.5 -242.5t-242.5 -161t-294.5 -60q-208 0 -383 101t-277 276.5t-102 383.5zM264 741q0 -269 161.5 -431.5t418.5 -162.5 q254 0 416.5 163t162.5 431q0 266 -163 431t-416 165q-256 0 -418 -164.5t-162 -431.5zM440 743q0 189 115 307.5t293 118.5q72 0 134 -23.5t105.5 -62.5t73 -84.5t45.5 -95.5l-207 -22q-22 61 -54.5 96t-88.5 35q-80 0 -128 -68t-48 -196q0 -135 49.5 -203t138.5 -68 q66 0 110.5 37.5t78.5 106.5l149 -39q-15 -43 -41.5 -84.5t-68.5 -84t-106.5 -68.5t-141.5 -26q-179 0 -293.5 118t-114.5 306z" />
<glyph unicode="&#xaa;" horiz-adv-x="821" d="M70 1001q0 100 93.5 162t256.5 66l78 6v43q0 53 -31 75.5t-78 22.5q-93 0 -135 -86l-168 35q40 89 111.5 131.5t199.5 42.5q153 -1 219 -55t66 -158v-256q0 -94 8 -143l15 -62h-193l-14 72q-59 -45 -104.5 -64.5t-104.5 -19.5q-103 0 -161 51t-58 137zM260 1014 q0 -36 28 -58t77 -22q57 0 100 37q33 30 33 59v100l-66 -4q-81 -3 -126.5 -32.5t-45.5 -79.5z" />
<glyph unicode="&#xab;" horiz-adv-x="1021" d="M104 514l242 399h160l-168 -399l166 -383h-158zM492 514l243 399h160l-166 -399l166 -383h-160z" />
<glyph unicode="&#xac;" horiz-adv-x="1204" d="M119 635v219h966v-526h-241l-2 309z" />
<glyph unicode="&#xad;" horiz-adv-x="811" d="M119 418v217l559 2v-219h-559z" />
<glyph unicode="&#xae;" horiz-adv-x="1132" d="M82 1024q0 198 139 337.5t338 139.5q97 0 184.5 -37.5t151.5 -101.5t101.5 -152.5t37.5 -185.5t-37.5 -185t-101.5 -151.5t-151.5 -101t-184.5 -37.5q-199 0 -338 138.5t-139 336.5zM213 1024q0 -163 94 -259.5t252 -96.5q157 0 251.5 97t94.5 259q0 163 -94.5 260.5 t-251.5 97.5q-158 0 -252 -97.5t-94 -260.5zM367 786v471h223q85 0 131.5 -32t46.5 -92q0 -90 -94 -127l92 -220h-127l-72 205h-82v-205h-118zM485 1075h99q63 0 63 49q0 24 -18 38t-51 14h-93v-101z" />
<glyph unicode="&#xaf;" horiz-adv-x="804" d="M35 1278v190h721v-190h-721z" />
<glyph unicode="&#xb0;" horiz-adv-x="970" d="M135 1368q0 150 97 247t247 97q147 0 244.5 -97t97.5 -247t-97.5 -246t-244.5 -96q-150 0 -247 96t-97 246zM309 1366q2 -78 47 -126t121 -48q74 0 119 48.5t45 125.5q0 76 -45 124t-121 48q-75 0 -121.5 -48.5t-44.5 -123.5z" />
<glyph unicode="&#xb1;" horiz-adv-x="1204" d="M119 74v215l966 2v-217h-966zM119 811v217h375v375h219v-375h372v-217h-372v-375h-217v375h-377z" />
<glyph unicode="&#xb2;" horiz-adv-x="794" d="M45 1411q0 140 94 230t269 90q157 0 248.5 -77t91.5 -204q0 -67 -26.5 -120.5t-68.5 -88t-93 -62.5t-102 -51t-93 -46.5t-68.5 -55.5t-26.5 -72v-10h475v-158h-684v142q0 67 27 121.5t70 91t95 66.5t104 55.5t95 51t70 59.5t27 75q0 56 -39.5 91.5t-106.5 35.5 q-72 0 -120 -42t-60 -122h-178z" />
<glyph unicode="&#xb3;" horiz-adv-x="833" d="M51 1075h180q13 -76 60 -113.5t117 -37.5q86 0 136 36.5t50 96.5q0 59 -50 94t-130 37l-88 4v149l80 5q75 3 121 38t46 89q0 51 -46 81.5t-119 30.5q-72 0 -119 -36.5t-53 -116.5h-179q0 145 99 222t256 77q162 0 261 -63.5t99 -186.5q0 -147 -170 -205q85 -24 139 -80.5 t54 -144.5t-53.5 -152.5t-140 -95t-193.5 -29.5q-168 0 -261.5 79.5t-95.5 221.5z" />
<glyph unicode="&#xb4;" horiz-adv-x="651" d="M29 1292l518 211l67 -194l-542 -144z" />
<glyph unicode="&#xb5;" horiz-adv-x="1243" d="M129 -338v1423h307v-675q0 -62 48 -103t120 -41q66 0 120 38t89 104v677h309l-6 -1085h-297v168q-55 -55 -103 -83.5t-104 -35.5q-103 -17 -176 23v-410h-307z" />
<glyph unicode="&#xb6;" horiz-adv-x="1224" d="M70 1042q0 90 31.5 169t90.5 139.5t150.5 95.5t204.5 35h557v-170h-127v-1481h-182v1481h-121v-1481h-182v782q-183 13 -302.5 127t-119.5 303z" />
<glyph unicode="&#xb7;" horiz-adv-x="530" d="M102 598v295h306v-295h-306z" />
<glyph unicode="&#xb8;" horiz-adv-x="559" d="M31 -381l41 102q81 -51 157 -51q48 0 75.5 17t27.5 47q0 41 -40.5 62t-133.5 22q-14 0 -17.5 3t0.5 15l76 174h131l-45 -121q107 -1 157 -48t50 -111q0 -75 -71 -120.5t-173 -45.5q-144 0 -235 55z" />
<glyph unicode="&#xb9;" horiz-adv-x="630" d="M10 1477v104q219 0 232 129h125v-932h-189v699h-168z" />
<glyph unicode="&#xba;" horiz-adv-x="813" d="M70 1155q0 154 94.5 250t241.5 96q151 0 243 -96.5t92 -249.5q0 -151 -92 -245.5t-243 -94.5t-243.5 95t-92.5 245zM268 1159q0 -215 138 -215q137 0 137 215q0 213 -137 213q-138 0 -138 -213z" />
<glyph unicode="&#xbb;" horiz-adv-x="1021" d="M113 913h159l242 -399l-242 -383h-157l166 383zM502 913h162l241 -399l-243 -383h-158l166 383z" />
<glyph unicode="&#xbc;" horiz-adv-x="1918" d="M10 1264v104q219 0 232 129h125v-932h-189v699h-168zM301 -6l999 1503h170l-995 -1505zM1087 207v153l426 572h185v-567h143v-158h-143v-207h-182l2 207h-431zM1262 365h256v340z" />
<glyph unicode="&#xbd;" horiz-adv-x="1957" d="M10 1264v104q219 0 232 129h125v-932h-189v699h-168zM301 -6l999 1503h170l-995 -1505zM1206 625q0 140 94 229.5t269 89.5q157 0 248.5 -76.5t91.5 -203.5q0 -67 -26.5 -120.5t-68.5 -88t-93 -62.5t-101.5 -51t-92.5 -46.5t-68.5 -55.5t-26.5 -72v-10h475v-158h-684v141 q0 67 27 121.5t70 91t94.5 67t103.5 56t95 51t70 59.5t27 75q0 56 -39 91t-106 35q-73 0 -121 -41.5t-60 -121.5h-178z" />
<glyph unicode="&#xbe;" horiz-adv-x="2119" d="M51 860h180q13 -76 60 -113.5t117 -37.5q86 0 136 36.5t50 96.5q0 59 -50 94t-130 37l-88 4v149l80 4q75 3 121 38t46 89q0 51 -46 82t-119 31q-72 0 -119 -36.5t-53 -116.5h-179q0 145 99 222t256 77q162 0 261 -63.5t99 -186.5q0 -147 -170 -205q85 -24 139 -80.5 t54 -144.5t-53.5 -152.5t-140 -95t-193.5 -29.5q-168 0 -261.5 79.5t-95.5 221.5zM504 -6l999 1503h170l-995 -1505zM1290 207v153l426 572h185v-567h143v-158h-143v-207h-183l2 207h-430zM1464 365h256v340z" />
<glyph unicode="&#xbf;" horiz-adv-x="1114" d="M68 0q0 67 22 123t56.5 95t77 73.5t84.5 67t76.5 66.5t56.5 81t22 102h242q0 -69 -19 -128.5t-48.5 -102t-66 -79.5t-73 -69.5t-66 -63.5t-48.5 -69t-19 -80q0 -68 54 -110.5t138 -42.5t158 51.5t108 134.5l254 -61q-66 -163 -200.5 -250.5t-321.5 -87.5 q-233 0 -360 98.5t-127 251.5zM420 739v320h328v-320h-328z" />
<glyph unicode="&#xc0;" d="M49 0l531 1481h315l528 -1481h-297l-120 344h-533l-123 -344h-301zM432 1731l68 194l518 -211l-43 -127zM539 604h395l-197 588z" />
<glyph unicode="&#xc1;" d="M49 0l531 1481h315l528 -1481h-297l-120 344h-533l-123 -344h-301zM446 1714l519 211l67 -194l-543 -144zM539 604h395l-197 588z" />
<glyph unicode="&#xc2;" d="M49 0l531 1481h315l528 -1481h-297l-120 344h-533l-123 -344h-301zM371 1640l270 277h207l262 -277h-233l-136 154l-149 -154h-221zM539 604h395l-197 588z" />
<glyph unicode="&#xc3;" d="M49 0l531 1481h315l528 -1481h-297l-120 344h-533l-123 -344h-301zM389 1812q46 46 90.5 70.5t108.5 24.5q60 0 159 -32t142 -32q76 0 170 72l37 -164q-87 -74 -205 -74q-59 0 -151.5 30t-143.5 30q-48 0 -82.5 -15.5t-77.5 -52.5zM539 604h395l-197 588z" />
<glyph unicode="&#xc4;" d="M49 0l531 1481h315l528 -1481h-297l-120 344h-533l-123 -344h-301zM362 1647v270h306v-270h-306zM539 604h395l-197 588zM801 1647v270h305v-270h-305z" />
<glyph unicode="&#xc5;" d="M49 0l531 1481h315l528 -1481h-297l-120 344h-533l-123 -344h-301zM514 1812q0 89 65.5 152.5t157.5 63.5t158 -64.5t66 -155.5q0 -94 -65.5 -158.5t-158.5 -64.5q-94 0 -158.5 65.5t-64.5 161.5zM539 604h395l-197 588zM631 1806q0 -41 31.5 -72.5t72.5 -31.5 q42 0 71.5 31t29.5 73q0 43 -29 72t-72 29q-42 0 -73 -29.5t-31 -71.5z" />
<glyph unicode="&#xc6;" horiz-adv-x="2146" d="M0 0l793 1481h1210l-2 -248h-701v-365h478v-245h-478v-373h723v-250h-1065v346h-475l-182 -346h-301zM594 604h364v680z" />
<glyph unicode="&#xc7;" horiz-adv-x="1480" d="M109 752q0 346 178.5 547.5t488.5 201.5q249 0 415.5 -141t190.5 -359l-313 -4q-21 120 -98 189t-203 69q-332 0 -332 -507q0 -264 87 -393.5t249 -129.5q115 0 193 76t102 197l313 -6q-13 -103 -48.5 -188.5t-98 -156t-161.5 -114t-228 -51.5l-35 -93q107 -1 157 -48 t50 -111q0 -75 -71 -120.5t-173 -45.5q-144 0 -235 55l41 102q81 -51 157 -51q48 0 75.5 17t27.5 47q0 41 -40.5 62t-133.5 22q-14 0 -17.5 3t0.5 15l64 146q-278 26 -440 235t-162 535z" />
<glyph unicode="&#xc8;" horiz-adv-x="1316" d="M166 0v1481h1018l-2 -252h-715v-359h620v-247h-622v-367l729 -2v-254h-1028zM371 1731l67 194l518 -211l-43 -127z" />
<glyph unicode="&#xc9;" horiz-adv-x="1316" d="M166 0v1481h1018l-2 -252h-715v-359h620v-247h-622v-367l729 -2v-254h-1028zM385 1714l518 211l68 -194l-543 -144z" />
<glyph unicode="&#xca;" horiz-adv-x="1316" d="M166 0v1481h1018l-2 -252h-715v-359h620v-247h-622v-367l729 -2v-254h-1028zM303 1640l270 277h205l264 -277h-233l-135 154l-150 -154h-221z" />
<glyph unicode="&#xcb;" horiz-adv-x="1316" d="M166 0v1481h1018l-2 -252h-715v-359h620v-247h-622v-367l729 -2v-254h-1028zM301 1647v270h305v-270h-305zM739 1647v270h305v-270h-305z" />
<glyph unicode="&#xcc;" horiz-adv-x="628" d="M10 1731l68 194l518 -211l-43 -127zM166 0v1481h299v-1481h-299z" />
<glyph unicode="&#xcd;" horiz-adv-x="628" d="M25 1714l518 211l67 -194l-542 -144zM166 0v1481h299v-1481h-299z" />
<glyph unicode="&#xce;" horiz-adv-x="628" d="M-55 1640l270 277h205l264 -277h-233l-136 154l-149 -154h-221zM166 0v1481h299v-1481h-299z" />
<glyph unicode="&#xcf;" horiz-adv-x="628" d="M-59 1647v270h305v-270h-305zM166 0v1481h299v-1481h-299zM379 1647v270h305v-270h-305z" />
<glyph unicode="&#xd0;" horiz-adv-x="1531" d="M72 623v219h153v639q316 0 443 -2q393 -9 580.5 -198.5t187.5 -532.5q0 -355 -195.5 -551.5t-583.5 -196.5h-432v623h-153zM526 242h138q99 0 179.5 27.5t144.5 86t99 158.5t35 236q0 489 -454 489h-142v-397h297v-219h-297v-381z" />
<glyph unicode="&#xd1;" horiz-adv-x="1599" d="M166 0v1481h297l676 -981v981h299v-1481h-271l-702 1018v-1018h-299zM453 1812q46 46 90 70.5t108 24.5q60 0 159 -32t142 -32q76 0 170 72l37 -164q-87 -74 -205 -74q-59 0 -151.5 30t-143.5 30q-48 0 -82 -15.5t-77 -52.5z" />
<glyph unicode="&#xd2;" horiz-adv-x="1576" d="M109 735q0 354 185 560t497 206t495.5 -205.5t183.5 -558.5q0 -351 -182.5 -554t-496.5 -203q-316 0 -499 202t-183 553zM434 733q0 -261 94.5 -384.5t264.5 -123.5q352 0 352 508q0 267 -93 394.5t-261 127.5t-262.5 -127.5t-94.5 -394.5zM485 1731l68 194l518 -211 l-43 -127z" />
<glyph unicode="&#xd3;" horiz-adv-x="1576" d="M109 735q0 354 185 560t497 206t495.5 -205.5t183.5 -558.5q0 -351 -182.5 -554t-496.5 -203q-316 0 -499 202t-183 553zM434 733q0 -261 94.5 -384.5t264.5 -123.5q352 0 352 508q0 267 -93 394.5t-261 127.5t-262.5 -127.5t-94.5 -394.5zM500 1714l518 211l67 -194 l-542 -144z" />
<glyph unicode="&#xd4;" horiz-adv-x="1576" d="M109 735q0 354 185 560t497 206t495.5 -205.5t183.5 -558.5q0 -351 -182.5 -554t-496.5 -203q-316 0 -499 202t-183 553zM418 1640l270 277h205l264 -277h-233l-136 154l-149 -154h-221zM434 733q0 -261 94.5 -384.5t264.5 -123.5q352 0 352 508q0 267 -93 394.5 t-261 127.5t-262.5 -127.5t-94.5 -394.5z" />
<glyph unicode="&#xd5;" horiz-adv-x="1576" d="M109 735q0 354 185 560t497 206t495.5 -205.5t183.5 -558.5q0 -351 -182.5 -554t-496.5 -203q-316 0 -499 202t-183 553zM434 733q0 -261 94.5 -384.5t264.5 -123.5q352 0 352 508q0 267 -93 394.5t-261 127.5t-262.5 -127.5t-94.5 -394.5zM442 1812q46 46 90.5 70.5 t108.5 24.5q60 0 159 -32t142 -32q76 0 170 72l37 -164q-87 -74 -205 -74q-59 0 -151.5 30t-143.5 30q-48 0 -82.5 -15.5t-77.5 -52.5z" />
<glyph unicode="&#xd6;" horiz-adv-x="1576" d="M109 735q0 354 185 560t497 206t495.5 -205.5t183.5 -558.5q0 -351 -182.5 -554t-496.5 -203q-316 0 -499 202t-183 553zM416 1647v270h305v-270h-305zM434 733q0 -261 94.5 -384.5t264.5 -123.5q352 0 352 508q0 267 -93 394.5t-261 127.5t-262.5 -127.5t-94.5 -394.5z M854 1647v270h305v-270h-305z" />
<glyph unicode="&#xd7;" horiz-adv-x="1181" d="M119 1061l153 153l316 -315l317 318l156 -154l-318 -318l316 -315l-156 -156l-313 316l-316 -316l-153 156l313 313z" />
<glyph unicode="&#xd8;" horiz-adv-x="1589" d="M43 106l172 177q-109 185 -109 452q0 355 184.5 560.5t497.5 205.5q278 0 453 -164l168 170l129 -133l-178 -186q108 -184 108 -451q0 -351 -183.5 -554t-496.5 -203q-276 0 -450 157l-162 -166zM475 860q-12 -153 12 -309l547 579q-77 134 -246 134q-143 0 -220.5 -99 t-92.5 -305zM543 340q77 -119 245 -119q139 0 215 88.5t91 274.5q15 159 -9 334z" />
<glyph unicode="&#xd9;" horiz-adv-x="1495" d="M166 573v908h305v-930q0 -160 77 -239t210 -79q134 0 212.5 79t78.5 239v930h303v-916q0 -283 -141 -434t-453 -151q-159 0 -274 40.5t-184.5 119t-101.5 185.5t-32 248zM453 1731l67 194l518 -211l-43 -127z" />
<glyph unicode="&#xda;" horiz-adv-x="1495" d="M166 573v908h305v-930q0 -160 77 -239t210 -79q134 0 212.5 79t78.5 239v930h303v-916q0 -283 -141 -434t-453 -151q-159 0 -274 40.5t-184.5 119t-101.5 185.5t-32 248zM469 1714l518 211l68 -194l-543 -144z" />
<glyph unicode="&#xdb;" horiz-adv-x="1495" d="M166 573v908h305v-930q0 -160 77 -239t210 -79q134 0 212.5 79t78.5 239v930h303v-916q0 -283 -141 -434t-453 -151q-159 0 -274 40.5t-184.5 119t-101.5 185.5t-32 248zM387 1640l270 277h205l264 -277h-233l-135 154l-150 -154h-221z" />
<glyph unicode="&#xdc;" horiz-adv-x="1495" d="M166 573v908h305v-930q0 -160 77 -239t210 -79q134 0 212.5 79t78.5 239v930h303v-916q0 -283 -141 -434t-453 -151q-159 0 -274 40.5t-184.5 119t-101.5 185.5t-32 248zM385 1647v270h305v-270h-305zM823 1647v270h305v-270h-305z" />
<glyph unicode="&#xdd;" horiz-adv-x="1353" d="M14 1481h324l340 -600l338 600h325l-514 -858v-623h-299v623zM422 1716l518 211l68 -194l-543 -144z" />
<glyph unicode="&#xde;" horiz-adv-x="1454" d="M166 0v1481h342v-285h301q123 0 227 -27t183.5 -80.5t124.5 -139t45 -195.5q0 -213 -148 -330t-393 -117h-340v-307h-342zM508 553h293q110 0 174.5 54t64.5 151q0 95 -68.5 144.5t-183.5 49.5h-280v-399z" />
<glyph unicode="&#xdf;" horiz-adv-x="1345" d="M61 805v207h121q2 77 21 144.5t58.5 127.5t98 103.5t145.5 68.5t195 25q202 0 309 -81t107 -222q0 -105 -63 -170.5t-203 -126.5q-34 -19 -45.5 -29.5t-11.5 -28.5q0 -20 12 -29t47 -20q159 -67 220 -106q160 -100 185 -258q5 -32 5 -66q0 -174 -119 -269t-316 -95 q-161 0 -274 67l90 184q30 -19 48 -28.5t53.5 -20t72.5 -10.5q78 0 127 36.5t49 104.5q0 35 -13 60.5t-44.5 46.5t-59.5 33.5t-83 33.5q-102 43 -161 105t-59 162q0 72 34.5 125.5t99.5 99.5q7 6 28.5 22.5t29.5 23.5t24.5 22t23.5 25.5t16.5 25.5t13 30.5t3.5 32.5 q0 57 -42.5 91t-119.5 34q-95 0 -150 -58.5t-55 -158.5v-1069h-295v805h-123z" />
<glyph unicode="&#xe0;" horiz-adv-x="1146" d="M70 303q0 176 132.5 266t409.5 93l131 2v63q0 75 -45.5 113.5t-130.5 38.5q-70 -2 -127.5 -36t-79.5 -100h-247q7 160 136 248t333 88q450 0 450 -334v-745h-250l-26 180q-52 -110 -131.5 -155t-196.5 -45q-157 0 -257.5 86t-100.5 237zM276 1309l68 194l518 -211 l-43 -127zM354 334q0 -73 49.5 -115.5t124.5 -42.5q82 0 148.5 54.5t66.5 123.5v156l-106 -2q-125 -2 -204 -43t-79 -131z" />
<glyph unicode="&#xe1;" horiz-adv-x="1146" d="M70 303q0 176 132.5 266t409.5 93l131 2v63q0 75 -45.5 113.5t-130.5 38.5q-70 -2 -127.5 -36t-79.5 -100h-247q7 160 136 248t333 88q450 0 450 -334v-745h-250l-26 180q-52 -110 -131.5 -155t-196.5 -45q-157 0 -257.5 86t-100.5 237zM291 1292l518 211l68 -194 l-543 -144zM354 334q0 -73 49.5 -115.5t124.5 -42.5q82 0 148.5 54.5t66.5 123.5v156l-106 -2q-125 -2 -204 -43t-79 -131z" />
<glyph unicode="&#xe2;" horiz-adv-x="1146" d="M70 303q0 176 132.5 266t409.5 93l131 2v63q0 75 -45.5 113.5t-130.5 38.5q-70 -2 -127.5 -36t-79.5 -100h-247q7 160 136 248t333 88q450 0 450 -334v-745h-250l-26 180q-52 -110 -131.5 -155t-196.5 -45q-157 0 -257.5 86t-100.5 237zM211 1219l270 276h205l264 -276 h-233l-135 153l-150 -153h-221zM354 334q0 -73 49.5 -115.5t124.5 -42.5q82 0 148.5 54.5t66.5 123.5v156l-106 -2q-125 -2 -204 -43t-79 -131z" />
<glyph unicode="&#xe3;" horiz-adv-x="1146" d="M70 303q0 176 132.5 266t409.5 93l131 2v63q0 75 -45.5 113.5t-130.5 38.5q-70 -2 -127.5 -36t-79.5 -100h-247q7 160 136 248t333 88q450 0 450 -334v-745h-250l-26 180q-52 -110 -131.5 -155t-196.5 -45q-157 0 -257.5 86t-100.5 237zM233 1391q46 46 90.5 70t108.5 24 q60 0 159 -32t142 -32q76 0 170 72l37 -164q-87 -74 -205 -74q-59 0 -151.5 30t-143.5 30q-48 0 -82 -15.5t-77 -52.5zM354 334q0 -73 49.5 -115.5t124.5 -42.5q82 0 148.5 54.5t66.5 123.5v156l-106 -2q-125 -2 -204 -43t-79 -131z" />
<glyph unicode="&#xe4;" horiz-adv-x="1146" d="M70 303q0 176 132.5 266t409.5 93l131 2v63q0 75 -45.5 113.5t-130.5 38.5q-70 -2 -127.5 -36t-79.5 -100h-247q7 160 136 248t333 88q450 0 450 -334v-745h-250l-26 180q-52 -110 -131.5 -155t-196.5 -45q-157 0 -257.5 86t-100.5 237zM207 1225v270h305v-270h-305z M354 334q0 -73 49.5 -115.5t124.5 -42.5q82 0 148.5 54.5t66.5 123.5v156l-106 -2q-125 -2 -204 -43t-79 -131zM645 1225v270h305v-270h-305z" />
<glyph unicode="&#xe5;" horiz-adv-x="1146" d="M70 303q0 176 132.5 266t409.5 93l131 2v63q0 75 -45.5 113.5t-130.5 38.5q-70 -2 -127.5 -36t-79.5 -100h-247q7 160 136 248t333 88q450 0 450 -334v-745h-250l-26 180q-52 -110 -131.5 -155t-196.5 -45q-157 0 -257.5 86t-100.5 237zM354 334q0 -73 49.5 -115.5 t124.5 -42.5q82 0 148.5 54.5t66.5 123.5v156l-106 -2q-125 -2 -204 -43t-79 -131zM360 1391q0 89 66 152t158 63t157.5 -64.5t65.5 -155.5q0 -95 -65 -159t-158 -64q-94 0 -159 66t-65 162zM477 1384q0 -41 32 -72.5t73 -31.5q42 0 71 31t29 73q0 43 -28.5 72t-71.5 29 q-42 0 -73.5 -29.5t-31.5 -71.5z" />
<glyph unicode="&#xe6;" horiz-adv-x="1865" d="M70 281q0 160 137.5 255.5t406.5 110.5l140 8v70q0 79 -44.5 122.5t-131.5 43.5q-149 0 -224 -148l-256 60q64 141 177.5 208.5t312.5 67.5q269 -3 364 -129q129 129 328 129q230 0 373 -162t143 -444h-741q0 -125 77 -207t189 -82q83 0 143 36.5t131 113.5l187 -82 q-94 -147 -211.5 -209.5t-286.5 -62.5q-249 0 -414 184q-10 10 -18 0q-87 -90 -190 -137t-250 -47q-162 0 -252 82t-90 219zM365 301q0 -63 43.5 -99.5t121.5 -35.5q91 3 157.5 50t66.5 114v168l-113 -9q-118 -10 -197 -58.5t-79 -129.5zM1061 639l442 -2q0 95 -58.5 175.5 t-154.5 80.5q-98 0 -163.5 -67.5t-65.5 -186.5z" />
<glyph unicode="&#xe7;" horiz-adv-x="1097" d="M70 524q0 246 143 400.5t369 154.5q191 0 311.5 -114.5t132.5 -290.5l-250 -2q-17 78 -64 129t-126 51q-110 0 -174 -86t-64 -238q0 -155 67 -245t177 -90q78 0 126 54t62 124h242q-9 -156 -112.5 -262t-266.5 -125l-35 -95q107 -1 157 -48t50 -111q0 -75 -71 -120.5 t-173 -45.5q-144 0 -235 55l41 102q81 -51 158 -51q48 0 75 17t27 47q0 41 -40.5 62t-133.5 22q-14 0 -17.5 3t0.5 15l64 148q-197 25 -318.5 172t-121.5 368z" />
<glyph unicode="&#xe8;" horiz-adv-x="1148" d="M70 518q0 160 59.5 286t177.5 200.5t277 74.5q236 0 363.5 -146t127.5 -390v-82h-708q-2 -123 58 -193.5t167 -70.5q162 0 213 139h268q-30 -165 -165.5 -260.5t-309.5 -95.5q-237 0 -382.5 146t-145.5 392zM279 1309l67 194l518 -211l-43 -127zM365 639h432 q0 101 -56 166t-159 65q-98 0 -157.5 -69t-59.5 -162z" />
<glyph unicode="&#xe9;" horiz-adv-x="1148" d="M70 518q0 160 59.5 286t177.5 200.5t277 74.5q236 0 363.5 -146t127.5 -390v-82h-708q-2 -123 58 -193.5t167 -70.5q162 0 213 139h268q-30 -165 -165.5 -260.5t-309.5 -95.5q-237 0 -382.5 146t-145.5 392zM293 1292l518 211l68 -194l-543 -144zM365 639h432 q0 101 -56 166t-159 65q-98 0 -157.5 -69t-59.5 -162z" />
<glyph unicode="&#xea;" horiz-adv-x="1148" d="M70 518q0 160 59.5 286t177.5 200.5t277 74.5q236 0 363.5 -146t127.5 -390v-82h-708q-2 -123 58 -193.5t167 -70.5q162 0 213 139h268q-30 -165 -165.5 -260.5t-309.5 -95.5q-237 0 -382.5 146t-145.5 392zM213 1219l270 276h205l264 -276h-233l-135 153l-150 -153h-221 zM365 639h432q0 101 -56 166t-159 65q-98 0 -157.5 -69t-59.5 -162z" />
<glyph unicode="&#xeb;" horiz-adv-x="1148" d="M70 518q0 160 59.5 286t177.5 200.5t277 74.5q236 0 363.5 -146t127.5 -390v-82h-708q-2 -123 58 -193.5t167 -70.5q162 0 213 139h268q-30 -165 -165.5 -260.5t-309.5 -95.5q-237 0 -382.5 146t-145.5 392zM209 1225v270h305v-270h-305zM365 639h432q0 101 -56 166 t-159 65q-98 0 -157.5 -69t-59.5 -162zM647 1225v270h305v-270h-305z" />
<glyph unicode="&#xec;" horiz-adv-x="561" d="M-16 1309l67 194l518 -211l-43 -127zM135 0v1059h299v-1059h-299z" />
<glyph unicode="&#xed;" horiz-adv-x="561" d="M-2 1292l518 211l68 -194l-543 -144zM135 0v1059h299v-1059h-299z" />
<glyph unicode="&#xee;" horiz-adv-x="561" d="M-84 1219l270 276h205l264 -276h-233l-135 153l-150 -153h-221zM135 0v1059h299v-1059h-299z" />
<glyph unicode="&#xef;" horiz-adv-x="561" d="M-86 1225v270h305v-270h-305zM135 0v1059h299v-1059h-299zM352 1225v270h305v-270h-305z" />
<glyph unicode="&#xf0;" horiz-adv-x="1210" d="M70 504q0 233 150.5 383.5t379.5 150.5q74 0 111 -34q-65 115 -197 210l-262 -147l-57 94l213 119q-76 42 -207 90l164 133q152 -44 262 -100l190 104l51 -96l-133 -76q198 -138 302 -342.5t104 -445.5q0 -258 -147 -412.5t-392 -154.5q-233 0 -382.5 148.5t-149.5 375.5 zM375 510q0 -155 61 -242.5t170 -87.5q110 0 170 87t60 243q0 157 -60.5 245.5t-169.5 88.5t-170 -88.5t-61 -245.5z" />
<glyph unicode="&#xf1;" horiz-adv-x="1224" d="M131 0v1059h295v-137q55 70 123.5 108.5t183.5 38.5q98 0 182 -43.5t136.5 -127.5t52.5 -191v-707h-299v670q0 76 -50 120t-126 44q-80 0 -139.5 -40t-59.5 -108v-686h-299zM274 1391q46 46 90.5 70t108.5 24q60 0 159 -32t142 -32q76 0 170 72l37 -164q-87 -74 -205 -74 q-59 0 -151.5 30t-143.5 30q-48 0 -82 -15.5t-77 -52.5z" />
<glyph unicode="&#xf2;" horiz-adv-x="1165" d="M70 522q0 249 142 403t372 154q235 0 372.5 -154.5t137.5 -400.5q0 -242 -138.5 -393t-373.5 -151t-373.5 150t-138.5 392zM279 1309l67 194l518 -211l-43 -127zM362 532q0 -65 12 -121t37 -104t70 -76t105 -28q59 0 102.5 27.5t67.5 76t35.5 104.5t11.5 121 q0 66 -11.5 122.5t-36 104t-68.5 74.5t-103 27q-60 0 -104.5 -27t-69.5 -74.5t-36.5 -104t-11.5 -122.5z" />
<glyph unicode="&#xf3;" horiz-adv-x="1165" d="M70 522q0 249 142 403t372 154q235 0 372.5 -154.5t137.5 -400.5q0 -242 -138.5 -393t-373.5 -151t-373.5 150t-138.5 392zM293 1292l518 211l68 -194l-543 -144zM362 532q0 -65 12 -121t37 -104t70 -76t105 -28q59 0 102.5 27.5t67.5 76t35.5 104.5t11.5 121 q0 66 -11.5 122.5t-36 104t-68.5 74.5t-103 27q-60 0 -104.5 -27t-69.5 -74.5t-36.5 -104t-11.5 -122.5z" />
<glyph unicode="&#xf4;" horiz-adv-x="1165" d="M70 522q0 249 142 403t372 154q235 0 372.5 -154.5t137.5 -400.5q0 -242 -138.5 -393t-373.5 -151t-373.5 150t-138.5 392zM213 1219l270 276h205l264 -276h-233l-135 153l-150 -153h-221zM362 532q0 -65 12 -121t37 -104t70 -76t105 -28q59 0 102.5 27.5t67.5 76 t35.5 104.5t11.5 121q0 66 -11.5 122.5t-36 104t-68.5 74.5t-103 27q-60 0 -104.5 -27t-69.5 -74.5t-36.5 -104t-11.5 -122.5z" />
<glyph unicode="&#xf5;" horiz-adv-x="1165" d="M70 522q0 249 142 403t372 154q235 0 372.5 -154.5t137.5 -400.5q0 -242 -138.5 -393t-373.5 -151t-373.5 150t-138.5 392zM236 1391q46 46 90 70t108 24q60 0 159 -32t142 -32q76 0 170 72l37 -164q-87 -74 -205 -74q-59 0 -151.5 30t-143.5 30q-48 0 -82 -15.5 t-77 -52.5zM362 532q0 -65 12 -121t37 -104t70 -76t105 -28q59 0 102.5 27.5t67.5 76t35.5 104.5t11.5 121q0 66 -11.5 122.5t-36 104t-68.5 74.5t-103 27q-60 0 -104.5 -27t-69.5 -74.5t-36.5 -104t-11.5 -122.5z" />
<glyph unicode="&#xf6;" horiz-adv-x="1165" d="M70 522q0 249 142 403t372 154q235 0 372.5 -154.5t137.5 -400.5q0 -242 -138.5 -393t-373.5 -151t-373.5 150t-138.5 392zM209 1225v270h305v-270h-305zM362 532q0 -65 12 -121t37 -104t70 -76t105 -28q59 0 102.5 27.5t67.5 76t35.5 104.5t11.5 121q0 66 -11.5 122.5 t-36 104t-68.5 74.5t-103 27q-60 0 -104.5 -27t-69.5 -74.5t-36.5 -104t-11.5 -122.5zM647 1225v270h305v-270h-305z" />
<glyph unicode="&#xf7;" horiz-adv-x="1204" d="M119 635v219h966v-217zM449 193v299h311v-299h-311zM449 999v299h311v-299h-311z" />
<glyph unicode="&#xf8;" horiz-adv-x="1253" d="M51 90l142 133q-72 129 -72 299q0 250 141.5 403.5t372.5 153.5q206 0 336 -118l119 110l96 -104l-123 -117q82 -139 82 -326q0 -242 -138.5 -393t-373.5 -151q-217 0 -352 129l-129 -123zM414 532q0 -48 6 -94l368 348q-58 74 -153 74q-79 0 -130.5 -48.5t-71 -119 t-19.5 -160.5zM473 289q59 -86 162 -86q59 0 102.5 27.5t67.5 76t35.5 104.5t11.5 121q0 62 -8 109z" />
<glyph unicode="&#xf9;" horiz-adv-x="1220" d="M129 328v733h299v-696q0 -82 52.5 -125t129.5 -43q82 0 135.5 46.5t53.5 127.5v690h301l-4 -1061h-228l-32 211q-14 -66 -48 -113.5t-80 -71.5t-91.5 -35t-94.5 -11q-68 1 -135.5 23t-126 63t-95 109.5t-36.5 152.5zM307 1309l68 194l518 -211l-43 -127z" />
<glyph unicode="&#xfa;" horiz-adv-x="1220" d="M129 328v733h299v-696q0 -82 52.5 -125t129.5 -43q82 0 135.5 46.5t53.5 127.5v690h301l-4 -1061h-228l-32 211q-14 -66 -48 -113.5t-80 -71.5t-91.5 -35t-94.5 -11q-68 1 -135.5 23t-126 63t-95 109.5t-36.5 152.5zM322 1292l518 211l67 -194l-542 -144z" />
<glyph unicode="&#xfb;" horiz-adv-x="1220" d="M129 328v733h299v-696q0 -82 52.5 -125t129.5 -43q82 0 135.5 46.5t53.5 127.5v690h301l-4 -1061h-228l-32 211q-14 -66 -48 -113.5t-80 -71.5t-91.5 -35t-94.5 -11q-68 1 -135.5 23t-126 63t-95 109.5t-36.5 152.5zM242 1219l270 276h205l264 -276h-233l-136 153 l-149 -153h-221z" />
<glyph unicode="&#xfc;" horiz-adv-x="1220" d="M129 328v733h299v-696q0 -82 52.5 -125t129.5 -43q82 0 135.5 46.5t53.5 127.5v690h301l-4 -1061h-228l-32 211q-14 -66 -48 -113.5t-80 -71.5t-91.5 -35t-94.5 -11q-68 1 -135.5 23t-126 63t-95 109.5t-36.5 152.5zM238 1225v270h305v-270h-305zM676 1225v270h305v-270 h-305z" />
<glyph unicode="&#xfd;" horiz-adv-x="1157" d="M29 1059h297l254 -690l258 690h290l-428 -1065q-41 -99 -86.5 -165.5t-96.5 -102t-103 -50t-117 -14.5q-64 0 -114 9t-67 19l-18 9v190l105 -4q38 -2 69.5 1t52 7.5t38.5 17t26 18.5t17 22t9.5 18.5t6.5 16.5l20 59zM324 1292l518 211l67 -194l-542 -144z" />
<glyph unicode="&#xfe;" horiz-adv-x="1234" d="M131 -330v1811h299v-555q67 71 139.5 112t182.5 41q89 0 163 -33.5t130 -98.5t87 -169.5t31 -238.5q0 -141 -32 -249t-90 -175t-135 -101t-171 -34q-157 0 -268 102q-15 13 -22.5 16t-11 -3t-3.5 -25v-400h-299zM430 272q89 -102 197 -102q233 0 233 373q0 346 -229 346 q-84 0 -142.5 -50t-58.5 -114v-453z" />
<glyph unicode="&#xff;" horiz-adv-x="1157" d="M29 1059h297l254 -690l258 690h290l-428 -1065q-41 -99 -86.5 -165.5t-96.5 -102t-103 -50t-117 -14.5q-64 0 -114 9t-67 19l-18 9v190l105 -4q38 -2 69.5 1t52 7.5t38.5 17t26 18.5t17 22t9.5 18.5t6.5 16.5l20 59zM238 1225v270h305v-270h-305zM676 1225v270h305v-270 h-305z" />
<glyph unicode="&#x152;" horiz-adv-x="2312" d="M109 735q0 357 190 561.5t524 204.5q219 0 336 -108l86 88h924v-248h-715v-365h485v-245h-485v-373h737v-250h-962l-70 88q-123 -108 -352 -108q-327 0 -512.5 201.5t-185.5 553.5zM465 733q0 -269 78.5 -391.5t249.5 -122.5q166 0 242.5 122t76.5 392q0 275 -78 403 t-243 128q-167 0 -246.5 -128t-79.5 -403z" />
<glyph unicode="&#x153;" horiz-adv-x="1947" d="M70 522q0 248 151 402.5t385 154.5q226 0 363 -153q21 -22 43 0q64 73 153.5 113t194.5 40q233 0 374.5 -162t141.5 -444h-739q0 -129 76.5 -208t189.5 -79q147 0 272 148l187 -82q-98 -151 -212 -211.5t-284 -60.5q-226 0 -365 149q-17 20 -34 -2q-144 -147 -363 -147 q-237 0 -385.5 151t-148.5 391zM375 528q0 -170 60 -259t171 -89q113 0 171.5 89t58.5 259q0 174 -59.5 265.5t-170.5 91.5t-171 -91.5t-60 -265.5zM1143 639l442 -2q0 61 -23.5 118t-73.5 97.5t-116 40.5q-100 0 -165 -68.5t-64 -185.5z" />
<glyph unicode="&#x178;" horiz-adv-x="1353" d="M14 1481h324l340 -600l338 600h325l-514 -858v-623h-299v623zM336 1649v270h305v-270h-305zM774 1649v270h305v-270h-305z" />
<glyph unicode="&#x2c6;" horiz-adv-x="776" d="M18 1219l271 276h205l264 -276h-234l-135 153l-149 -153h-222z" />
<glyph unicode="&#x2dc;" horiz-adv-x="849" d="M68 1391q46 46 90 70t108 24q60 0 159 -32t142 -32q76 0 170 72l37 -164q-87 -74 -205 -74q-59 0 -151.5 30t-143.5 30q-48 0 -82 -15.5t-77 -52.5z" />
<glyph unicode="&#x2000;" horiz-adv-x="1014" />
<glyph unicode="&#x2001;" horiz-adv-x="2028" />
<glyph unicode="&#x2002;" horiz-adv-x="1014" />
<glyph unicode="&#x2003;" horiz-adv-x="2028" />
<glyph unicode="&#x2004;" horiz-adv-x="676" />
<glyph unicode="&#x2005;" horiz-adv-x="507" />
<glyph unicode="&#x2006;" horiz-adv-x="338" />
<glyph unicode="&#x2007;" horiz-adv-x="338" />
<glyph unicode="&#x2008;" horiz-adv-x="253" />
<glyph unicode="&#x2009;" horiz-adv-x="405" />
<glyph unicode="&#x200a;" horiz-adv-x="112" />
<glyph unicode="&#x2010;" horiz-adv-x="811" d="M119 418v217l559 2v-219h-559z" />
<glyph unicode="&#x2011;" horiz-adv-x="811" d="M119 418v217l559 2v-219h-559z" />
<glyph unicode="&#x2012;" horiz-adv-x="811" d="M119 418v217l559 2v-219h-559z" />
<glyph unicode="&#x2013;" horiz-adv-x="1218" d="M119 399v219h966v-217z" />
<glyph unicode="&#x2014;" horiz-adv-x="1867" d="M119 399v219h1616v-217z" />
<glyph unicode="&#x2018;" horiz-adv-x="538" d="M78 967v254l207 321h110l-119 -278l105 -11v-286h-303z" />
<glyph unicode="&#x2019;" horiz-adv-x="518" d="M102 905l119 279l-104 10v287h303v-254l-207 -322h-111z" />
<glyph unicode="&#x201a;" horiz-adv-x="567" d="M96 -285l119 279l-104 10v289h303v-254l-207 -324h-111z" />
<glyph unicode="&#x201c;" horiz-adv-x="980" d="M80 905v254l207 322h110l-118 -279l104 -10v-287h-303zM524 905v254l205 322h111l-119 -279l104 -10v-287h-301z" />
<glyph unicode="&#x201d;" horiz-adv-x="962" d="M102 905l119 279l-104 10v287h303v-254l-207 -322h-111zM545 905l119 279l-105 10v287h303v-254l-207 -322h-110z" />
<glyph unicode="&#x201e;" horiz-adv-x="1019" d="M96 -285l119 279l-104 10v289h303v-254l-207 -324h-111zM551 -285l117 279l-103 10v289h301v-254l-204 -324h-111z" />
<glyph unicode="&#x2022;" horiz-adv-x="722" d="M94 754q0 106 75 181t181 75t182 -75t76 -181t-76 -182t-182 -76t-181 76t-75 182z" />
<glyph unicode="&#x2026;" horiz-adv-x="1814" d="M143 0v326h328v-326h-328zM784 0v326h328v-326h-328zM1423 0v326h328v-326h-328z" />
<glyph unicode="&#x202f;" horiz-adv-x="405" />
<glyph unicode="&#x2039;" horiz-adv-x="632" d="M104 514l242 399h160l-168 -399l166 -383h-158z" />
<glyph unicode="&#x203a;" horiz-adv-x="632" d="M113 913h159l242 -399l-242 -383h-157l166 383z" />
<glyph unicode="&#x205f;" horiz-adv-x="507" />
<glyph unicode="&#x20ac;" horiz-adv-x="1335" d="M2 494v163h164q-4 62 -4 95q0 50 2 75h-162v162h184q56 240 218 376t393 136q137 0 256 -54.5t200 -150.5l-206 -155q-54 58 -106 90.5t-118 32.5q-110 0 -184.5 -68t-106.5 -207h338v-162h-360q-2 -25 -2 -79q0 -16 1 -46.5t1 -44.5h360v-163h-333q37 -132 114.5 -197.5 t184.5 -65.5q71 0 141 38.5t115 92.5l159 -172q-82 -94 -201 -152t-253 -58q-225 0 -385 138.5t-219 375.5h-191z" />
<glyph unicode="&#x2122;" horiz-adv-x="1955" d="M16 760v166h742v-166h-275v-760h-186v760h-281zM881 0v926h272l211 -660l215 660h270v-926h-188v707l-223 -707h-146l-221 705v-705h-190z" />
<glyph unicode="&#x25fc;" horiz-adv-x="1054" d="M0 0v1055h1055v-1055h-1055z" />
</font>
</defs>
</svg>
